<?xml version="1.0" standalone="no"?>
<!DOCTYPE svg PUBLIC "-//W3C//DTD SVG 20010904//EN"
 "http://www.w3.org/TR/2001/REC-SVG-20010904/DTD/svg10.dtd">
<svg version="1.0" xmlns="http://www.w3.org/2000/svg"
 width="1254.000000pt" height="1254.000000pt" viewBox="0 0 1254.000000 1254.000000"
 preserveAspectRatio="xMidYMid meet">

<g transform="translate(0.000000,1254.000000) scale(0.100000,-0.100000)"
fill="#000000" stroke="none">
<path d="M5770 11275 c-734 -91 -1392 -406 -1896 -910 -473 -473 -764 -1013
-909 -1687 -121 -567 -89 -1173 95 -1743 314 -980 1020 -1744 1957 -2121 234
-94 491 -159 753 -189 164 -20 473 -19 625 0 213 28 461 97 646 180 77 35 266
138 282 154 4 4 -27 23 -70 40 -104 44 -244 127 -335 199 l-73 58 -70 -33
c-155 -73 -369 -130 -575 -154 -131 -15 -428 -7 -560 16 -544 92 -1057 370
-1460 792 -222 232 -384 463 -525 748 -225 456 -324 863 -325 1336 0 475 96
887 306 1309 146 294 323 538 551 761 227 223 427 365 703 503 791 394 1664
394 2410 0 393 -208 734 -520 993 -906 130 -195 276 -525 337 -761 13 -48 25
-86 27 -84 4 4 -14 82 -41 177 -9 30 -16 65 -16 78 0 12 -4 22 -10 22 -5 0
-10 8 -10 17 0 15 1 15 13 1 16 -20 101 -13 93 8 -3 8 -1 14 5 14 6 0 7 5 3
12 -5 7 -2 9 9 5 11 -4 14 -2 10 9 -4 10 3 14 28 14 26 0 30 -3 19 -10 -12 -8
-11 -10 8 -10 13 0 22 -6 22 -16 0 -12 7 -15 26 -11 17 3 24 1 20 -8 -3 -8 4
-10 21 -7 14 3 28 13 30 23 3 10 9 16 14 13 5 -3 9 2 9 10 0 19 21 21 38 4 7
-7 12 -9 12 -4 0 4 -7 14 -16 23 -24 24 0 42 26 18 15 -14 20 -15 21 -4 1 22
19 -28 55 -151 18 -63 33 -108 33 -99 1 8 -12 62 -29 120 -183 646 -551 1202
-1065 1604 -467 366 -1018 585 -1624 645 -139 14 -461 11 -591 -5z m3167
-1952 c-3 -2 -12 15 -22 39 -28 69 -27 78 0 19 14 -29 24 -55 22 -58z m32 -78
c0 -5 -4 -3 -9 5 -5 8 -9 22 -9 30 0 16 17 -16 18 -35z m20 -60 c0 -5 -4 -3
-9 5 -5 8 -9 22 -9 30 0 16 17 -16 18 -35z m-425 3 c9 -36 -10 -43 -22 -9 -9
25 -8 31 2 31 8 0 16 -10 20 -22z m216 -28 c0 -5 -8 -10 -17 -10 -15 0 -16 2
-3 10 19 12 20 12 20 0z m140 0 c0 -5 -5 -10 -11 -10 -5 0 -7 5 -4 10 3 6 8
10 11 10 2 0 4 -4 4 -10z"/>
<path d="M5833 10303 c-14 -16 -152 -248 -308 -518 -155 -269 -399 -683 -541
-920 -337 -558 -473 -827 -570 -1122 -135 -411 -143 -810 -24 -1165 81 -243
203 -440 385 -624 204 -205 412 -334 701 -434 224 -77 419 -106 663 -97 172 6
262 22 428 72 l83 26 -28 42 c-16 23 -48 79 -72 124 -24 46 -45 81 -48 79 -2
-2 1 -13 7 -24 10 -19 6 -22 -43 -36 -148 -43 -208 -51 -406 -50 -164 0 -212
3 -300 22 -196 43 -393 119 -540 209 -242 149 -438 358 -554 591 -45 90 -102
257 -114 335 l-9 58 45 26 c117 69 257 98 428 90 148 -7 223 -27 489 -134 281
-113 342 -127 535 -128 170 0 272 20 369 71 43 22 50 31 75 97 131 339 409
637 741 793 55 26 102 48 104 50 5 4 -38 130 -84 245 -94 231 -206 436 -552
1014 -238 397 -610 1031 -714 1217 -68 122 -99 141 -146 91z m-214 -1658 c16
-8 33 -27 39 -42 12 -32 125 -557 202 -943 28 -140 52 -258 53 -262 2 -7 68
134 235 497 35 77 75 150 89 163 25 23 85 30 112 13 7 -5 45 -62 85 -127 l72
-119 279 -2 c271 -3 281 -4 298 -24 24 -30 22 -81 -5 -107 -22 -19 -38 -21
-278 -28 -186 -5 -262 -10 -282 -21 -24 -11 -33 -11 -60 0 -40 17 -53 32 -108
126 l-43 74 -15 -29 c-8 -16 -87 -186 -174 -379 -95 -209 -168 -357 -181 -367
-30 -24 -78 -23 -105 2 -19 18 -42 76 -42 108 0 7 -25 133 -55 280 -31 147
-76 364 -101 482 -24 118 -49 235 -56 259 l-12 45 -33 -100 c-18 -54 -57 -177
-85 -272 -41 -139 -57 -179 -80 -203 -39 -38 -72 -46 -114 -25 -29 13 -74 16
-287 16 -220 0 -256 2 -287 18 -21 10 -37 27 -40 42 -8 32 7 78 30 90 11 6
137 10 304 10 l285 0 45 143 c24 78 70 225 101 327 99 326 104 339 133 355 34
18 47 18 81 0z"/>
<path d="M7073 7747 c-7 -15 -13 -35 -13 -45 0 -15 1 -15 16 0 9 9 14 27 12
44 l-3 29 -12 -28z"/>
<path d="M9081 8874 c0 -11 3 -14 6 -6 3 7 2 16 -1 19 -3 4 -6 -2 -5 -13z"/>
<path d="M9091 8834 c0 -11 3 -14 6 -6 3 7 2 16 -1 19 -3 4 -6 -2 -5 -13z"/>
<path d="M9102 8790 c0 -14 2 -19 5 -12 2 6 2 18 0 25 -3 6 -5 1 -5 -13z"/>
<path d="M9112 8740 c0 -14 2 -19 5 -12 2 6 2 18 0 25 -3 6 -5 1 -5 -13z"/>
<path d="M9122 8680 c0 -19 2 -27 5 -17 2 9 2 25 0 35 -3 9 -5 1 -5 -18z"/>
<path d="M8681 8634 c0 -11 3 -14 6 -6 3 7 2 16 -1 19 -3 4 -6 -2 -5 -13z"/>
<path d="M9132 8620 c0 -14 2 -19 5 -12 2 6 2 18 0 25 -3 6 -5 1 -5 -13z"/>
<path d="M9142 8525 c0 -16 2 -22 5 -12 2 9 2 23 0 30 -3 6 -5 -1 -5 -18z"/>
<path d="M9142 7910 c0 -19 2 -27 5 -17 2 9 2 25 0 35 -3 9 -5 1 -5 -18z"/>
<path d="M9131 7814 c0 -11 3 -14 6 -6 3 7 2 16 -1 19 -3 4 -6 -2 -5 -13z"/>
<path d="M7575 7633 c-448 -80 -822 -410 -969 -854 -55 -164 -68 -246 -69
-409 -1 -168 15 -268 69 -422 44 -126 76 -190 153 -304 189 -282 482 -477 808
-540 108 -21 319 -23 423 -5 203 36 428 138 586 267 l40 33 280 -280 c224
-225 286 -281 317 -290 62 -17 103 1 178 78 81 82 89 97 89 163 l0 51 -169
177 c-93 97 -228 235 -299 306 l-131 129 24 46 c104 206 157 475 136 691 -52
533 -386 962 -872 1124 -165 54 -417 71 -594 39z m412 -218 c417 -88 719 -386
825 -813 18 -71 22 -115 22 -242 -1 -134 -5 -168 -27 -253 -80 -302 -278 -552
-547 -691 -168 -87 -331 -122 -518 -113 -698 34 -1174 753 -937 1417 62 171
151 307 285 433 135 128 301 216 482 257 105 23 317 26 415 5z"/>
<path d="M7240 6945 l-24 -25 39 -40 39 -40 141 0 141 0 39 40 39 40 -24 25
c-23 25 -25 25 -195 25 -170 0 -172 0 -195 -25z"/>
<path d="M7963 6946 l-28 -25 40 -40 39 -41 141 0 141 0 39 40 39 40 -24 25
c-23 25 -25 25 -191 25 -163 0 -169 -1 -196 -24z"/>
<path d="M7177 6882 c-14 -16 -17 -43 -17 -175 l0 -157 25 -16 c25 -17 27 -16
60 16 l35 34 0 126 0 126 -33 32 c-38 37 -48 39 -70 14z"/>
<path d="M7617 6862 l-37 -38 0 -121 0 -121 35 -31 c43 -37 45 -37 73 -8 21
22 22 33 22 168 0 115 -3 149 -16 167 -21 31 -34 28 -77 -16z"/>
<path d="M7896 6878 c-13 -18 -16 -52 -16 -168 l0 -146 28 -28 29 -27 36 41
37 40 0 118 0 118 -38 37 c-44 43 -55 45 -76 15z"/>
<path d="M8343 6865 l-33 -34 1 -128 0 -128 35 -29 c33 -27 35 -27 59 -12 25
16 25 17 25 175 0 140 -2 160 -18 174 -25 23 -32 21 -69 -18z"/>
<path d="M7258 6536 l-37 -33 32 -31 33 -32 144 0 145 1 35 29 35 29 -34 35
-35 36 -140 0 -141 -1 -37 -33z"/>
<path d="M7979 6534 l-34 -35 35 -29 c35 -29 35 -29 175 -30 l141 0 34 29 35
29 -34 36 -35 36 -141 0 -141 0 -35 -36z"/>
<path d="M7617 6452 l-37 -38 0 -120 0 -120 40 -39 40 -39 25 24 c25 23 25 26
25 175 0 145 -1 152 -23 173 -13 12 -25 22 -28 22 -3 0 -22 -17 -42 -38z"/>
<path d="M7902 6467 c-21 -22 -22 -33 -22 -173 0 -149 0 -151 26 -175 l26 -24
39 43 40 42 -1 118 -2 117 -36 38 c-20 20 -39 37 -42 37 -4 0 -16 -10 -28 -23z"/>
<path d="M8342 6457 l-32 -33 0 -125 0 -125 39 -38 39 -38 21 21 c20 20 21 32
21 174 0 148 -1 154 -23 175 -13 12 -25 22 -28 22 -3 0 -19 -15 -37 -33z"/>
<path d="M7252 6127 c-39 -40 -40 -50 -6 -76 25 -19 40 -21 188 -21 155 0 162
1 191 24 l30 25 -40 40 -39 41 -146 0 -146 0 -32 -33z"/>
<path d="M7977 6122 l-37 -38 28 -27 28 -27 161 0 c157 0 163 1 190 24 l28 25
-40 40 -39 41 -141 0 -141 0 -37 -38z"/>
<path d="M7910 5867 c0 -1 -22 -61 -50 -132 -27 -71 -50 -133 -50 -137 0 -4 8
-8 18 -8 13 0 26 24 50 93 18 50 42 113 52 140 20 47 20 47 0 47 -11 0 -20 -1
-20 -3z"/>
<path d="M8090 5823 c0 -37 -3 -44 -12 -35 -18 18 -62 14 -91 -8 -73 -58 -17
-189 70 -165 15 5 38 7 51 6 22 -2 22 -1 22 123 0 119 -1 126 -20 126 -17 0
-20 -7 -20 -47z m-2 -112 c4 -39 -12 -61 -44 -61 -23 0 -54 33 -54 58 0 7 11
24 25 38 24 24 28 25 48 11 13 -9 23 -27 25 -46z"/>
<path d="M8189 5863 c-4 -36 -5 -129 -1 -180 l5 -63 68 0 c55 0 69 3 69 15 0
11 -12 15 -50 15 l-50 0 -2 88 c-1 48 -2 96 -2 107 -1 19 -35 36 -37 18z"/>
<path d="M7288 5710 c-3 -86 -2 -90 18 -90 19 0 21 7 23 62 3 73 5 78 36 78
28 0 35 -16 35 -85 0 -36 4 -55 14 -58 22 -9 26 2 26 63 0 61 14 84 47 78 15
-3 19 -16 23 -71 3 -37 8 -67 13 -67 4 0 13 0 20 0 18 0 10 140 -10 163 -20
21 -66 22 -83 2 -12 -14 -15 -14 -30 0 -19 17 -66 20 -76 4 -4 -8 -9 -8 -17 0
-27 27 -36 11 -39 -79z"/>
<path d="M7627 5780 c-34 -27 -44 -78 -23 -118 8 -16 23 -32 31 -36 27 -10 70
-7 83 6 9 9 12 6 12 -13 0 -37 -41 -55 -81 -35 -23 12 -30 12 -39 1 -8 -10 -5
-17 12 -29 32 -23 90 -20 122 5 25 20 26 24 26 130 0 88 -3 109 -14 109 -8 0
-18 -5 -21 -10 -4 -7 -12 -7 -25 0 -29 15 -55 12 -83 -10z m96 -40 c32 -46
-14 -106 -62 -81 -11 6 -24 23 -27 37 -13 52 59 87 89 44z"/>
<path d="M8750 7446 c0 -2 8 -10 18 -17 15 -13 16 -12 3 4 -13 16 -21 21 -21
13z"/>
<path d="M4868 6913 c12 -2 30 -2 40 0 9 3 -1 5 -23 4 -22 0 -30 -2 -17 -4z"/>
<path d="M4615 6895 c-39 -17 -21 -18 25 0 19 7 28 14 20 14 -8 0 -28 -6 -45
-14z"/>
<path d="M4948 6903 c7 -3 16 -2 19 1 4 3 -2 6 -13 5 -11 0 -14 -3 -6 -6z"/>
<path d="M6421 6744 c0 -11 3 -14 6 -6 3 7 2 16 -1 19 -3 4 -6 -2 -5 -13z"/>
<path d="M6411 6704 c0 -11 3 -14 6 -6 3 7 2 16 -1 19 -3 4 -6 -2 -5 -13z"/>
<path d="M5598 6673 c7 -3 16 -2 19 1 4 3 -2 6 -13 5 -11 0 -14 -3 -6 -6z"/>
<path d="M5638 6663 c7 -3 16 -2 19 1 4 3 -2 6 -13 5 -11 0 -14 -3 -6 -6z"/>
<path d="M5688 6653 c7 -3 16 -2 19 1 4 3 -2 6 -13 5 -11 0 -14 -3 -6 -6z"/>
<path d="M6028 6653 c6 -2 18 -2 25 0 6 3 1 5 -13 5 -14 0 -19 -2 -12 -5z"/>
<path d="M5768 6643 c6 -2 18 -2 25 0 6 3 1 5 -13 5 -14 0 -19 -2 -12 -5z"/>
<path d="M5953 6643 c9 -2 25 -2 35 0 9 3 1 5 -18 5 -19 0 -27 -2 -17 -5z"/>
<path d="M6381 6524 c0 -11 3 -14 6 -6 3 7 2 16 -1 19 -3 4 -6 -2 -5 -13z"/>
<path d="M6411 6024 c-1 -15 30 -117 34 -112 2 2 -4 31 -14 63 -11 33 -20 55
-20 49z"/>
<path d="M2785 4374 c-38 -8 -112 -35 -163 -60 -151 -73 -271 -209 -327 -371
-90 -261 -31 -527 159 -719 134 -134 288 -197 486 -197 197 0 344 57 471 183
61 60 85 92 117 160 22 47 45 108 51 136 17 84 25 232 13 246 -8 10 -81 12
-331 10 l-322 -3 3 -102 3 -102 203 -3 203 -2 -6 -23 c-17 -60 -61 -130 -103
-168 -87 -76 -175 -109 -297 -109 -136 0 -241 45 -330 142 -136 147 -163 355
-70 539 136 266 509 318 709 98 l54 -60 101 42 c56 23 104 45 106 49 8 12 -77
121 -131 169 -114 101 -248 151 -419 157 -75 2 -132 -1 -180 -12z"/>
<path d="M3925 4375 c-5 -2 -36 -9 -67 -15 -32 -6 -65 -18 -73 -26 -13 -13
-15 -99 -15 -650 l0 -634 110 0 110 0 0 665 0 665 -27 -1 c-16 0 -32 -2 -38
-4z"/>
<path d="M9998 4353 c7 -3 16 -2 19 1 4 3 -2 6 -13 5 -11 0 -14 -3 -6 -6z"/>
<path d="M10038 4343 c7 -3 16 -2 19 1 4 3 -2 6 -13 5 -11 0 -14 -3 -6 -6z"/>
<path d="M10078 4333 c7 -3 16 -2 19 1 4 3 -2 6 -13 5 -11 0 -14 -3 -6 -6z"/>
<path d="M9063 4260 c0 -30 2 -43 4 -27 2 15 2 39 0 55 -2 15 -4 2 -4 -28z"/>
<path d="M10220 4277 c0 -3 12 -12 26 -22 15 -9 23 -12 20 -6 -7 11 -46 35
-46 28z"/>
<path d="M8872 3668 l-2 -608 23 1 c21 0 21 1 2 9 -11 5 -14 9 -7 9 14 1 17
51 2 51 -6 0 -11 202 -13 573 l-2 572 -3 -607z"/>
<path d="M9519 4243 c-13 -16 -12 -17 4 -4 16 13 21 21 13 21 -2 0 -10 -8 -17
-17z"/>
<path d="M9445 4178 c-28 -29 -41 -45 -31 -37 11 7 28 13 38 11 15 -3 19 1 16
16 -2 11 6 29 16 41 39 43 8 19 -39 -31z"/>
<path d="M9933 4163 c9 -2 23 -2 30 0 6 3 -1 5 -18 5 -16 0 -22 -2 -12 -5z"/>
<path d="M10361 4155 c9 -11 14 -26 11 -34 -3 -8 1 -12 9 -9 8 3 22 -5 32 -16
16 -18 16 -17 -1 9 -11 17 -30 39 -43 50 l-24 20 16 -20z"/>
<path d="M9988 4153 c7 -3 16 -2 19 1 4 3 -2 6 -13 5 -11 0 -14 -3 -6 -6z"/>
<path d="M9379 4103 c-13 -16 -12 -17 4 -4 16 13 21 21 13 21 -2 0 -10 -8 -17
-17z"/>
<path d="M9334 4035 c-14 -25 -25 -48 -22 -50 2 -2 16 18 31 46 35 62 27 65
-9 4z"/>
<path d="M10190 4045 c19 -19 36 -35 39 -35 3 0 -10 16 -29 35 -19 19 -36 35
-39 35 -3 0 10 -16 29 -35z"/>
<path d="M9600 4055 c-10 -12 -15 -13 -20 -4 -6 8 -9 8 -14 0 -4 -6 -2 -11 5
-11 7 0 5 -9 -7 -22 -10 -13 -2 -7 19 11 20 19 37 36 37 38 0 7 -8 2 -20 -12z"/>
<path d="M10261 3956 c12 -20 23 -36 25 -36 7 0 -25 58 -36 65 -5 3 -1 -10 11
-29z"/>
<path d="M5438 3957 c-132 -45 -240 -148 -288 -275 -28 -72 -38 -217 -20 -293
27 -116 102 -225 196 -285 84 -54 159 -74 272 -74 176 0 294 58 393 194 44 60
40 67 -58 104 -49 18 -93 32 -99 32 -6 0 -25 -18 -43 -40 -49 -61 -101 -84
-191 -85 -64 0 -82 4 -122 27 -96 57 -146 157 -134 270 7 72 24 114 66 162
109 124 308 108 400 -31 l15 -22 90 30 c49 16 94 34 99 39 25 25 -80 159 -162
207 -114 67 -286 83 -414 40z"/>
<path d="M6497 3969 c-71 -17 -149 -61 -206 -118 -96 -95 -141 -208 -141 -351
0 -134 38 -235 123 -326 92 -99 201 -144 352 -145 130 -1 212 25 303 93 48 35
112 109 112 128 0 5 -41 24 -91 44 l-91 37 -43 -40 c-100 -92 -271 -91 -373 3
-27 23 -56 76 -66 119 l-6 27 350 0 350 0 0 73 c0 277 -187 469 -453 466 -45
-1 -99 -5 -120 -10z m244 -210 c46 -25 93 -86 103 -131 l6 -28 -239 0 -240 0
16 37 c28 67 77 115 148 141 49 19 156 9 206 -19z"/>
<path d="M7615 3967 c-58 -23 -94 -47 -124 -84 l-31 -38 0 58 0 58 -107 -3
-108 -3 0 -450 0 -450 108 -3 107 -3 0 265 c0 308 6 351 58 405 85 89 238 75
288 -25 17 -35 19 -67 22 -342 l3 -303 107 3 107 3 5 301 5 301 27 41 c37 56
78 76 155 77 66 0 97 -15 136 -66 31 -43 37 -95 37 -382 l0 -278 108 3 107 3
3 300 c2 194 -1 321 -8 360 -23 120 -92 206 -199 246 -46 17 -72 20 -146 17
-108 -5 -172 -33 -231 -101 l-38 -44 -49 53 c-63 69 -127 94 -235 93 -42 0
-90 -6 -107 -12z"/>
<path d="M10486 3961 c4 -16 3 -21 -5 -17 -6 4 -11 2 -11 -3 0 -6 7 -11 15
-11 8 0 15 -5 15 -12 0 -6 2 -9 6 -6 3 3 -2 21 -10 39 -9 19 -13 23 -10 10z"/>
<path d="M9279 3901 c-11 -40 -19 -74 -17 -77 3 -2 15 28 26 68 12 39 20 73
18 76 -3 2 -15 -28 -27 -67z"/>
<path d="M4130 3951 c0 -11 73 -190 257 -630 l114 -274 -38 -76 c-50 -99 -74
-116 -164 -115 l-70 0 3 -100 3 -101 79 -3 c105 -4 172 18 236 75 26 24 61 65
76 91 15 26 126 292 246 592 l217 545 -116 3 c-63 1 -118 1 -120 -2 -4 -4 -72
-186 -179 -480 -30 -83 -57 -152 -59 -154 -2 -3 -8 4 -11 14 -13 36 -186 486
-212 552 l-27 67 -118 3 c-74 2 -117 -1 -117 -7z"/>
<path d="M9064 3595 c0 -176 2 -247 3 -157 2 90 2 234 0 320 -1 86 -3 13 -3
-163z"/>
<path d="M10511 3884 c0 -11 3 -14 6 -6 3 7 2 16 -1 19 -3 4 -6 -2 -5 -13z"/>
<path d="M10522 3840 c0 -14 2 -19 5 -12 2 6 2 18 0 25 -3 6 -5 1 -5 -13z"/>
<path d="M9445 3820 c2 -14 5 -38 6 -55 1 -24 3 -22 10 15 5 25 7 50 5 55 -3
6 -5 1 -6 -10 l-1 -20 -10 20 c-8 17 -9 17 -4 -5z"/>
<path d="M10321 3814 c0 -11 3 -14 6 -6 3 7 2 16 -1 19 -3 4 -6 -2 -5 -13z"/>
<path d="M10330 3705 c0 -125 -36 -225 -113 -315 l-29 -33 -41 49 c-23 27 -55
62 -70 79 l-29 30 21 -31 c11 -17 27 -37 36 -44 9 -7 26 -27 37 -43 19 -26 19
-30 5 -24 -15 5 -16 3 -7 -13 14 -25 30 -35 30 -17 0 8 7 14 17 13 9 0 32 19
51 44 19 25 39 45 46 46 26 2 28 5 18 17 -7 8 -3 32 14 82 14 42 24 96 25 135
1 36 3 57 6 47 7 -26 23 -10 23 22 0 20 -6 30 -20 34 -19 5 -20 0 -20 -78z"/>
<path d="M9253 3715 c0 -33 2 -45 4 -27 2 18 2 45 0 60 -2 15 -4 0 -4 -33z"/>
<path d="M9451 3638 c-1 -16 -5 -28 -11 -28 -5 0 -10 -13 -10 -30 0 -31 20
-43 20 -12 1 13 4 11 15 -8 18 -31 18 -20 0 50 -9 37 -14 46 -14 28z"/>
<path d="M10530 3623 c0 -22 -2 -25 -10 -13 -8 13 -11 12 -25 -5 -15 -20 -12
-64 6 -75 5 -4 5 -20 -1 -40 -5 -18 -8 -36 -6 -38 7 -6 35 94 42 149 4 27 4
49 0 49 -3 0 -6 -12 -6 -27z m-13 -55 c-3 -8 -6 -5 -6 6 -1 11 2 17 5 13 3 -3
4 -12 1 -19z"/>
<path d="M9272 3540 c0 -14 2 -19 5 -12 2 6 2 18 0 25 -3 6 -5 1 -5 -13z"/>
<path d="M9281 3508 c-2 -14 41 -118 51 -124 6 -4 6 1 -1 14 -14 25 -14 45 -1
37 5 -3 5 7 -1 25 -6 16 -17 30 -24 30 -7 0 -16 6 -18 13 -3 6 -6 9 -6 5z m39
-63 c0 -5 -5 -3 -10 5 -5 8 -10 20 -10 25 0 6 5 3 10 -5 5 -8 10 -19 10 -25z"/>
<path d="M10472 3415 c-17 -37 -14 -45 4 -12 9 16 14 31 11 33 -2 2 -9 -7 -15
-21z"/>
<path d="M9567 3383 c10 -15 18 -34 18 -42 0 -9 9 -16 20 -16 11 0 27 -4 35
-9 8 -5 -7 14 -35 43 -27 28 -51 51 -52 51 -2 0 4 -12 14 -27z"/>
<path d="M9940 3365 c38 -49 90 -104 90 -96 0 6 -5 13 -11 17 -8 4 -7 9 2 14
9 6 9 12 -5 25 -9 9 -23 18 -31 19 -8 1 -24 11 -37 22 -23 19 -23 19 -8 -1z"/>
<path d="M10402 3356 c-18 -9 -22 -18 -20 -47 2 -38 -18 -69 -39 -61 -16 5
-43 -22 -43 -42 0 -9 5 -16 12 -16 6 0 21 -8 32 -17 21 -18 21 -18 2 4 -18 22
-18 23 30 77 27 30 57 67 66 83 16 27 16 29 0 29 -9 0 -27 -4 -40 -10z"/>
<path d="M9395 3280 c10 -11 20 -20 23 -20 3 0 -3 9 -13 20 -10 11 -20 20 -23
20 -3 0 3 -9 13 -20z"/>
<path d="M9430 3241 c0 -11 70 -70 115 -96 l30 -17 -28 22 c-15 12 -25 26 -22
30 5 8 -49 55 -63 55 -4 0 -13 4 -19 8 -7 5 -13 4 -13 -2z m83 -60 c-2 -3 -16
8 -31 24 l-27 28 31 -24 c17 -13 30 -26 27 -28z"/>
<path d="M9910 3240 l-65 -7 60 0 c33 -1 71 3 85 7 30 10 15 10 -80 0z"/>
<path d="M9910 3210 c0 -5 5 -10 10 -10 6 0 10 5 10 10 0 6 -4 10 -10 10 -5 0
-10 -4 -10 -10z"/>
<path d="M9058 3130 c-2 -39 0 -70 5 -70 4 0 7 32 7 70 0 39 -2 70 -4 70 -2 0
-6 -32 -8 -70z"/>
<path d="M10392 3113 c9 -10 14 -28 12 -41 -3 -20 0 -23 20 -20 13 1 32 -4 42
-12 10 -7 -3 9 -31 38 -46 49 -77 73 -43 35z m39 -40 c13 -16 12 -17 -3 -4
-17 13 -22 21 -14 21 2 0 10 -8 17 -17z"/>
<path d="M10140 3100 c-8 -5 -32 -7 -52 -3 -23 3 -38 1 -38 -4 0 -6 12 -8 28
-5 54 10 13 -9 -49 -23 -40 -8 -53 -14 -34 -14 17 0 62 10 100 23 l70 24 45
-47 c25 -26 37 -37 26 -25 -10 13 -15 28 -11 35 5 7 4 10 -2 6 -6 -4 -21 5
-33 18 -26 28 -29 29 -50 15z"/>
<path d="M9650 3090 c8 -5 20 -10 25 -10 6 0 3 5 -5 10 -8 5 -19 10 -25 10 -5
0 -3 -5 5 -10z"/>
<path d="M9755 3071 l-30 -7 35 -7 c37 -8 206 -19 180 -12 -8 2 -46 7 -85 11
-54 5 -64 9 -45 15 l25 7 -25 0 c-14 0 -38 -3 -55 -7z"/>
<path d="M10521 2973 c3 -21 -2 -33 -16 -33 -8 0 -15 -5 -15 -10 0 -6 18 -10
44 -8 l45 3 -26 28 c-28 28 -34 32 -32 20z"/>
<path d="M10308 2943 c15 -15 35 -23 58 -23 37 0 39 2 23 31 -7 15 -16 18 -32
13 -12 -4 -25 -12 -29 -17 -5 -8 -13 -7 -25 3 -11 8 -8 5 5 -7z"/>
<path d="M6081 2684 c0 -11 3 -14 6 -6 3 7 2 16 -1 19 -3 4 -6 -2 -5 -13z"/>
<path d="M6231 2640 c0 -8 4 -22 9 -30 12 -18 12 -2 0 25 -6 13 -9 15 -9 5z"/>
<path d="M6171 2610 c0 -8 4 -22 9 -30 12 -18 12 -2 0 25 -6 13 -9 15 -9 5z"/>
<path d="M6031 2524 c0 -11 3 -14 6 -6 3 7 2 16 -1 19 -3 4 -6 -2 -5 -13z"/>
<path d="M6081 2482 c-1 -7 -5 -11 -10 -8 -5 4 -7 -3 -4 -15 5 -19 7 -19 15
-5 5 9 7 22 4 29 -3 9 -5 8 -5 -1z"/>
<path d="M5238 2413 c7 -3 16 -2 19 1 4 3 -2 6 -13 5 -11 0 -14 -3 -6 -6z"/>
<path d="M5368 2413 c56 -2 148 -2 205 0 56 1 10 3 -103 3 -113 0 -159 -2
-102 -3z"/>
<path d="M5688 2413 c7 -3 16 -2 19 1 4 3 -2 6 -13 5 -11 0 -14 -3 -6 -6z"/>
<path d="M5908 2413 c7 -3 16 -2 19 1 4 3 -2 6 -13 5 -11 0 -14 -3 -6 -6z"/>
<path d="M6470 2399 c-7 -11 -10 -23 -7 -25 2 -2 9 7 15 21 14 30 7 33 -8 4z"/>
<path d="M6698 2413 c12 -2 30 -2 40 0 9 3 -1 5 -23 4 -22 0 -30 -2 -17 -4z"/>
<path d="M7103 2413 c54 -2 139 -2 190 0 51 1 7 3 -98 3 -104 0 -146 -2 -92
-3z"/>
<path d="M4418 2403 c7 -3 16 -2 19 1 4 3 -2 6 -13 5 -11 0 -14 -3 -6 -6z"/>
<path d="M4468 2403 c12 -2 30 -2 40 0 9 3 -1 5 -23 4 -22 0 -30 -2 -17 -4z"/>
<path d="M4553 2403 c15 -2 37 -2 50 0 12 2 0 4 -28 4 -27 0 -38 -2 -22 -4z"/>
<path d="M5955 2390 c10 -11 20 -20 23 -20 3 0 -3 9 -13 20 -10 11 -20 20 -23
20 -3 0 3 -9 13 -20z"/>
<path d="M7828 2403 c6 -2 18 -2 25 0 6 3 1 5 -13 5 -14 0 -19 -2 -12 -5z"/>
<path d="M7968 2403 c57 -2 147 -2 200 0 53 1 7 3 -103 3 -110 0 -154 -2 -97
-3z"/>
<path d="M2826 2392 c-3 -5 8 -6 25 -4 16 2 29 6 29 8 0 8 -49 4 -54 -4z"/>
<path d="M3153 2393 c37 -2 96 -2 130 0 34 2 4 3 -68 3 -71 0 -99 -1 -62 -3z"/>
<path d="M3478 2393 c18 -2 45 -2 60 0 15 2 0 4 -33 4 -33 0 -45 -2 -27 -4z"/>
<path d="M9112 2393 c70 -2 187 -2 260 0 73 1 16 3 -127 3 -143 0 -203 -2
-133 -3z"/>
<path d="M9518 2393 c6 -2 18 -2 25 0 6 3 1 5 -13 5 -14 0 -19 -2 -12 -5z"/>
<path d="M7838 2363 c23 -2 59 -2 80 0 20 2 1 4 -43 4 -44 0 -61 -2 -37 -4z"/>
<path d="M8003 2363 c15 -2 37 -2 50 0 12 2 0 4 -28 4 -27 0 -38 -2 -22 -4z"/>
<path d="M5890 2353 c8 -4 21 -13 28 -22 11 -14 11 -13 2 7 -6 12 -18 22 -28
21 -14 0 -14 -2 -2 -6z"/>
<path d="M6472 2245 c-17 -37 -14 -45 4 -12 9 16 14 31 11 33 -2 2 -9 -7 -15
-21z"/>
<path d="M8823 1978 c-23 -30 -24 -38 -5 -38 11 0 27 11 36 25 16 24 15 25 -3
25 -10 0 -23 -6 -28 -12z"/>
<path d="M3175 1913 c-57 -15 -95 -67 -95 -130 0 -50 18 -82 59 -110 86 -58
201 2 201 106 0 94 -76 156 -165 134z m90 -56 c17 -14 28 -36 32 -63 4 -33 1
-45 -22 -72 -37 -44 -84 -44 -127 -2 -27 28 -30 36 -25 73 7 50 44 87 87 87
16 0 41 -10 55 -23z"/>
<path d="M4231 1903 c-99 -52 -105 -184 -10 -235 86 -46 180 1 194 98 15 101
-96 183 -184 137z m92 -34 c54 -25 67 -110 22 -154 -67 -68 -176 7 -145 100
18 54 72 77 123 54z"/>
<path d="M8263 1909 c-102 -29 -113 -198 -17 -244 52 -24 99 -19 136 14 28 25
30 31 16 36 -10 4 -27 0 -40 -9 -27 -19 -76 -20 -99 -3 -47 36 -52 105 -10
148 33 33 58 36 102 13 39 -20 68 -12 48 13 -15 18 -71 44 -91 42 -7 0 -27 -5
-45 -10z"/>
<path d="M2740 1780 c0 -123 1 -130 20 -130 18 0 20 8 22 92 l3 93 34 -53 c18
-28 37 -52 42 -52 5 0 24 23 43 52 l35 52 3 -90 c3 -75 6 -89 21 -92 15 -3 17
8 17 127 0 124 -1 131 -20 131 -14 0 -32 -19 -57 -60 -21 -33 -40 -60 -43 -60
-3 0 -21 27 -40 60 -26 45 -41 60 -57 60 -23 0 -23 -2 -23 -130z"/>
<path d="M3440 1779 c0 -119 2 -130 18 -127 14 3 18 18 22 92 l5 89 63 -92
c88 -127 96 -123 100 42 2 121 2 127 -17 127 -19 0 -20 -8 -23 -92 l-3 -91
-64 91 c-92 131 -101 128 -101 -39z"/>
<path d="M3760 1780 c0 -123 1 -130 20 -130 19 0 20 7 20 130 0 123 -1 130
-20 130 -19 0 -20 -7 -20 -130z"/>
<path d="M3890 1889 c0 -18 5 -20 38 -17 l37 3 3 -113 c2 -104 4 -112 22 -112
19 0 20 7 20 110 l0 110 40 0 c33 0 40 3 40 20 0 19 -7 20 -100 20 -95 0 -100
-1 -100 -21z"/>
<path d="M4510 1780 c0 -123 1 -130 20 -130 17 0 20 7 20 50 0 48 1 50 28 50
21 0 33 -10 57 -48 19 -29 38 -48 53 -50 28 -4 28 -2 -8 52 l-30 45 25 25 c33
33 34 84 2 114 -19 18 -35 22 -95 22 l-72 0 0 -130z m136 79 c17 -14 18 -41 2
-57 -7 -7 -31 -12 -55 -12 l-43 0 0 38 c0 21 3 42 8 46 9 10 70 0 88 -15z"/>
<path d="M4810 1780 l0 -131 83 3 c65 2 82 6 82 18 0 11 -15 16 -62 18 l-63 3
0 39 0 40 56 0 c46 0 55 3 52 17 -2 12 -15 16 -53 17 -49 1 -50 2 -53 34 l-3
32 60 0 c54 0 61 2 61 20 0 18 -7 20 -80 20 l-80 0 0 -130z"/>
<path d="M5146 1878 c-44 -105 -86 -213 -86 -220 0 -20 33 -5 48 21 14 26 23
30 71 33 53 3 54 2 68 -29 9 -22 20 -33 34 -33 24 0 25 -4 -35 146 -35 86 -48
110 -65 112 -16 3 -25 -5 -35 -30z m53 -65 c7 -21 15 -44 17 -50 4 -9 -7 -13
-36 -13 -30 0 -41 4 -37 13 2 6 10 29 18 50 7 20 16 37 19 37 4 0 12 -17 19
-37z"/>
<path d="M5692 1783 l3 -128 83 -3 c77 -3 82 -2 82 18 0 18 -6 20 -60 20 l-60
0 0 40 0 40 55 0 c42 0 55 3 55 15 0 11 -12 15 -47 16 -27 1 -51 1 -55 0 -5 0
-8 17 -8 39 0 22 3 39 8 39 4 -1 31 -1 60 0 39 1 52 5 52 16 0 12 -16 15 -85
15 l-86 0 3 -127z"/>
<path d="M5960 1780 c0 -123 1 -130 20 -130 19 0 20 7 20 93 l1 92 22 -26 c12
-14 43 -56 69 -92 71 -99 78 -94 78 63 0 122 -1 130 -20 130 -17 0 -19 -8 -22
-86 l-3 -85 -62 85 c-43 59 -69 86 -83 86 -19 0 -20 -6 -20 -130z"/>
<path d="M6270 1890 c0 -17 7 -20 40 -20 l40 0 0 -110 c0 -103 1 -110 20 -110
19 0 20 7 20 110 0 118 -3 112 55 114 11 1 21 9 23 19 3 15 -7 17 -97 17 -94
0 -101 -1 -101 -20z"/>
<path d="M6562 1783 c3 -112 5 -128 21 -131 15 -3 17 8 17 127 0 125 -1 131
-20 131 -20 0 -20 -5 -18 -127z"/>
<path d="M6720 1780 l0 -131 82 3 c70 3 83 6 86 21 3 15 -5 17 -62 17 l-66 0
0 40 0 40 55 0 c41 0 55 4 55 14 0 11 -15 16 -52 18 -52 3 -53 4 -56 35 l-3
32 63 3 c50 2 63 6 66 21 3 15 -6 17 -82 17 l-86 0 0 -130z"/>
<path d="M6990 1780 c0 -123 1 -130 20 -130 18 0 20 8 22 93 l3 92 65 -92 c92
-131 100 -128 100 37 0 122 -1 130 -20 130 -17 0 -19 -8 -22 -87 l-3 -88 -64
88 c-41 56 -70 87 -82 87 -18 0 -19 -9 -19 -130z"/>
<path d="M7314 1897 c-2 -7 -3 -65 -2 -128 l3 -114 35 -3 c95 -9 170 30 183
96 9 46 -9 104 -43 135 -27 24 -38 27 -100 27 -49 0 -72 -4 -76 -13z m155 -52
c25 -24 31 -77 12 -112 -13 -26 -61 -45 -97 -41 l-29 3 -1 85 c-1 47 1 89 3
93 9 15 88 -5 112 -28z"/>
<path d="M7630 1780 l0 -131 82 3 c70 3 83 6 86 21 3 15 -5 17 -62 17 l-66 0
0 40 0 40 56 0 c46 0 55 3 52 17 -2 12 -15 16 -53 17 l-50 1 0 34 0 34 60 2
c47 2 61 6 63 19 3 14 -8 16 -82 16 l-86 0 0 -130z"/>
<path d="M8490 1825 c0 -104 15 -147 59 -165 40 -16 98 -7 125 20 18 18 21 36
24 125 4 101 3 105 -17 105 -20 0 -21 -5 -21 -93 0 -104 -12 -127 -63 -127
-52 0 -67 29 -67 130 0 83 -1 90 -20 90 -18 0 -20 -7 -20 -85z"/>
<path d="M8800 1780 c0 -123 1 -130 20 -130 19 0 20 7 20 130 0 123 -1 130
-20 130 -19 0 -20 -7 -20 -130z"/>
<path d="M8940 1781 l0 -131 63 0 c69 0 114 20 143 65 26 39 15 128 -20 163
-23 24 -35 27 -106 30 l-80 4 0 -131z m160 62 c32 -41 23 -108 -19 -140 -9 -7
-35 -13 -58 -13 l-43 0 0 88 c0 49 2 91 4 93 3 2 25 3 50 1 35 -3 51 -10 66
-29z"/>
<path d="M9307 1883 c-7 -15 -29 -66 -47 -113 -18 -47 -37 -89 -42 -95 -14
-15 -9 -25 12 -25 12 0 26 12 35 30 15 28 19 30 74 30 57 0 59 -1 70 -30 7
-20 17 -30 30 -30 12 0 21 1 21 3 0 2 -22 59 -49 128 -38 98 -53 125 -69 127
-15 2 -25 -5 -35 -25z m56 -90 l17 -43 -40 0 c-22 0 -40 1 -40 3 0 2 7 25 16
51 18 52 23 51 47 -11z"/>
<path d="M9490 1890 c0 -16 7 -20 35 -20 l34 0 3 -107 c3 -97 5 -108 21 -108
17 0 19 10 20 110 l2 110 38 -3 c31 -2 37 0 37 18 0 19 -6 20 -95 20 -88 0
-95 -1 -95 -20z"/>
<path d="M9760 1780 l0 -130 85 0 c78 0 85 2 85 20 0 18 -7 20 -66 20 l-65 0
3 38 3 37 58 3 c47 2 58 6 55 19 -2 12 -16 16 -58 17 -54 1 -55 1 -58 33 l-3
32 63 3 c50 2 63 6 66 21 3 15 -6 17 -82 17 l-86 0 0 -130z"/>
<path d="M5397 1703 c-4 -3 -7 -14 -7 -24 0 -20 26 -33 36 -17 4 7 3 8 -4 4
-7 -4 -12 -3 -12 3 0 5 5 11 12 13 6 2 8 10 4 16 -8 13 -19 15 -29 5z"/>
<path d="M7890 1686 c0 -8 4 -18 10 -21 6 -4 7 1 3 11 -5 14 -2 16 15 12 12
-4 20 -2 16 3 -9 15 -44 10 -44 -5z"/>
<path d="M10045 1690 c3 -5 8 -10 11 -10 2 0 4 5 4 10 0 6 -5 10 -11 10 -5 0
-7 -4 -4 -10z"/>
</g>
</svg>
